<?xml version="1.0" standalone="no"?>
<!DOCTYPE svg PUBLIC "-//W3C//DTD SVG 20010904//EN"
 "http://www.w3.org/TR/2001/REC-SVG-20010904/DTD/svg10.dtd">
<svg version="1.0" xmlns="http://www.w3.org/2000/svg"
 width="512.000000pt" height="512.000000pt" viewBox="0 0 512.000000 512.000000"
 preserveAspectRatio="xMidYMid meet">
<metadata>
Created by potrace 1.16, written by Peter Selinger 2001-2019
</metadata>
<g transform="translate(0.000000,512.000000) scale(0.100000,-0.100000)"
fill="#000000" stroke="none">
<path d="M1783 4763 c-62 -67 -297 -364 -418 -528 -599 -813 -958 -1559 -1036
-2149 -17 -134 -6 -474 20 -599 47 -226 127 -420 242 -580 74 -105 226 -253
329 -322 163 -108 368 -192 585 -237 97 -20 138 -23 345 -23 206 0 249 3 349
23 187 38 426 126 459 169 21 28 15 81 -13 108 -32 33 -67 32 -146 -4 -412
-186 -925 -174 -1334 31 -348 176 -558 455 -647 861 -20 89 -22 131 -22 337 0
219 1 244 27 364 95 444 342 969 732 1556 219 328 584 816 606 808 23 -8 327
-406 496 -648 261 -375 506 -805 660 -1157 34 -79 61 -99 114 -88 75 17 79 73
15 220 -214 493 -614 1126 -1067 1685 -170 210 -170 210 -220 210 -35 0 -47
-6 -76 -37z"/>
<path d="M3669 4781 l-24 -19 -3 -456 -3 -456 -135 0 -136 0 -29 -29 c-18 -19
-29 -40 -29 -58 0 -20 80 -149 281 -453 154 -234 288 -431 297 -437 27 -21 86
-16 109 10 28 29 552 822 563 851 11 31 2 71 -22 93 -17 15 -42 18 -164 21
l-144 3 0 455 c0 441 -1 455 -20 474 -19 19 -33 20 -269 20 -230 0 -251 -1
-272 -19z m391 -586 c0 -379 2 -450 15 -475 18 -35 32 -39 152 -43 l91 -2
-191 -288 -190 -288 -189 285 c-103 157 -188 288 -188 291 0 3 45 5 100 5 94
0 103 2 125 25 l25 24 0 456 0 455 125 0 125 0 0 -445z"/>
<path d="M1272 3362 c-42 -42 -247 -438 -337 -653 -148 -350 -205 -587 -205
-843 0 -353 99 -611 308 -807 128 -120 343 -233 466 -246 49 -5 54 -3 74 22
27 34 29 88 3 114 -10 10 -49 29 -87 41 -390 129 -594 429 -594 874 0 172 31
331 106 547 74 214 202 492 345 750 67 120 74 161 36 197 -30 28 -89 30 -115
4z"/>
<path d="M3510 2629 c-453 -56 -818 -352 -966 -783 -79 -229 -78 -524 3 -749
61 -171 186 -364 304 -471 139 -126 320 -225 494 -272 122 -32 357 -44 483
-24 477 76 855 440 954 920 29 139 22 384 -15 523 -46 171 -147 357 -273 496
-107 119 -311 251 -476 307 -147 50 -358 72 -508 53z m374 -194 c291 -73 551
-294 666 -563 64 -151 75 -211 74 -402 0 -161 -2 -182 -27 -263 -84 -273 -257
-483 -506 -611 -274 -142 -604 -144 -886 -5 -263 129 -468 393 -531 684 -27
124 -23 314 9 436 104 400 431 692 839 749 93 13 259 2 362 -25z"/>
<path d="M3305 2045 c-266 -149 -312 -179 -323 -206 -10 -23 -12 -113 -10
-380 3 -333 4 -349 23 -368 31 -29 627 -361 649 -361 11 0 161 80 334 178 274
154 317 181 328 209 19 44 19 684 1 726 -9 21 -76 63 -317 198 -186 104 -319
173 -340 175 -30 4 -76 -19 -345 -171z m737 -234 c7 -6 -379 -226 -398 -226
-20 0 -403 220 -396 227 4 3 94 56 201 115 l195 109 195 -109 c108 -60 199
-112 203 -116z m-669 -278 l187 -105 0 -229 c0 -126 -2 -229 -5 -229 -3 0 -97
52 -210 116 l-205 116 0 229 0 230 23 -12 c12 -7 106 -59 210 -116z m767 -105
l0 -233 -196 -110 c-108 -60 -200 -111 -205 -113 -5 -2 -9 93 -9 226 l0 230
203 115 c111 63 203 115 205 116 1 1 2 -104 2 -231z"/>
</g>
</svg>
