<?xml version="1.0" standalone="no"?>
<!DOCTYPE svg PUBLIC "-//W3C//DTD SVG 20010904//EN"
 "http://www.w3.org/TR/2001/REC-SVG-20010904/DTD/svg10.dtd">
<svg version="1.0" xmlns="http://www.w3.org/2000/svg"
 width="512.000000pt" height="512.000000pt" viewBox="0 0 512.000000 512.000000"
 preserveAspectRatio="xMidYMid meet">
<metadata>
Created by potrace 1.16, written by Peter Selinger 2001-2019
</metadata>
<g transform="translate(0.000000,512.000000) scale(0.100000,-0.100000)"
fill="#000000" stroke="none">
<path d="M1893 4954 c-23 -8 -58 -33 -77 -55 l-36 -39 0 -155 c0 -223 -20
-295 -103 -379 -65 -64 -123 -87 -252 -97 -135 -11 -222 -36 -300 -87 -164
-108 -246 -258 -246 -452 0 -145 44 -265 134 -362 l42 -46 -245 -4 c-274 -5
-310 -12 -419 -85 -158 -104 -241 -259 -241 -447 1 -109 11 -160 51 -243 74
-154 271 -293 417 -293 l35 0 -52 -55 c-270 -286 -123 -770 264 -870 49 -12
143 -15 563 -15 l504 0 -57 -62 c-31 -35 -72 -94 -91 -133 -56 -115 -64 -173
-64 -503 0 -323 1 -329 62 -375 49 -36 92 -47 182 -47 97 0 169 28 207 81 22
31 24 46 29 189 4 105 10 163 19 180 30 55 63 88 113 116 l53 29 395 5 395 5
70 29 c92 38 186 105 236 169 44 55 99 157 99 182 0 8 2 15 5 15 2 0 36 -20
74 -45 40 -26 81 -45 97 -45 19 0 80 35 186 105 537 358 873 743 994 1140 26
83 28 104 28 260 1 160 -1 174 -26 243 -76 210 -227 349 -434 402 -169 43
-364 10 -536 -91 -58 -34 -161 -114 -192 -148 l-20 -22 -35 34 c-132 124 -272
200 -430 232 -41 9 -76 17 -77 18 0 1 -6 35 -13 76 -35 201 -193 374 -392 426
-42 12 -135 15 -419 15 l-365 0 67 70 c73 76 126 172 155 280 15 56 18 114 18
405 0 388 1 383 -82 432 -42 25 -59 28 -148 30 -70 2 -112 -2 -142 -13z m166
-299 c30 4 61 9 69 12 13 5 14 -27 9 -248 -4 -220 -7 -261 -25 -309 -34 -96
-63 -143 -128 -207 -82 -83 -176 -129 -294 -144 -114 -14 -148 -52 -101 -110
l19 -24 584 -5 583 -5 65 -31 c73 -35 144 -99 183 -165 26 -45 61 -161 55
-181 -2 -6 -36 -19 -76 -29 -184 -46 -324 -164 -404 -336 l-28 -63 -941 0
-940 0 -24 -25 c-29 -28 -31 -51 -9 -83 l15 -22 934 0 934 0 1 -112 c0 -62 6
-141 13 -175 l14 -63 -947 0 c-593 0 -967 4 -1001 10 -128 24 -252 119 -307
237 -24 52 -27 70 -27 163 0 94 3 111 28 164 54 117 137 190 258 227 58 18
108 19 1073 19 899 0 1014 2 1034 16 27 18 30 69 5 96 -15 17 -49 18 -662 18
-714 0 -714 0 -820 63 -68 41 -115 95 -155 177 -29 60 -31 73 -31 170 0 98 2
110 32 170 75 154 222 240 407 240 116 0 238 52 320 136 87 89 124 181 133
330 l6 101 46 -9 c25 -5 70 -6 100 -3z m1217 -1570 c132 -31 243 -96 370 -217
106 -102 112 -102 218 0 90 86 168 141 252 178 311 137 625 -6 709 -323 18
-68 21 -226 5 -298 -82 -377 -418 -783 -935 -1131 -66 -44 -125 -83 -131 -87
-14 -8 -241 146 -390 263 -148 116 -353 322 -452 455 -107 142 -202 330 -232
457 -26 111 -28 255 -6 341 73 271 325 425 592 362z m-623 -977 c25 -51 65
-124 90 -163 l46 -70 -885 -5 c-862 -5 -886 -6 -900 -24 -19 -26 -18 -71 2
-90 14 -14 114 -16 949 -16 l934 0 133 -133 c111 -112 230 -213 422 -361 l30
-22 -23 -60 c-42 -113 -137 -210 -251 -256 -53 -22 -72 -23 -445 -28 -454 -6
-458 -7 -565 -107 -79 -72 -112 -142 -118 -246 -4 -60 -8 -77 -18 -73 -32 12
-113 16 -156 8 l-48 -9 0 201 c0 224 9 279 62 377 59 112 187 204 317 229 31
6 222 10 449 10 439 0 432 -1 432 65 0 64 70 60 -1124 65 l-1091 5 -67 33
c-165 81 -258 251 -230 420 25 150 130 273 274 323 50 17 106 18 895 19 l842
0 44 -92z"/>
<path d="M3592 2538 c-8 -8 -12 -48 -12 -115 l0 -102 -107 -3 c-103 -3 -108
-4 -120 -28 -8 -16 -13 -70 -13 -151 0 -171 2 -173 139 -177 l101 -4 0 -98 c0
-131 -1 -130 175 -130 176 0 175 -1 175 130 l0 98 100 4 c138 4 135 1 135 182
0 106 -4 147 -14 159 -11 14 -33 17 -117 17 l-104 0 0 103 c0 67 -4 107 -12
115 -8 8 -59 12 -163 12 -104 0 -155 -4 -163 -12z m210 -208 c4 -131 7 -134
138 -138 l100 -4 0 -49 0 -49 -104 0 c-83 0 -106 -3 -117 -16 -8 -10 -15 -53
-17 -115 l-4 -99 -49 0 -49 0 0 103 c0 67 -4 107 -12 115 -8 8 -48 12 -115 12
l-103 0 0 49 0 49 98 4 c65 2 105 8 115 17 14 11 17 33 17 117 l0 104 49 0 49
0 4 -100z"/>
</g>
</svg>
