<?xml version="1.0" standalone="no"?>
<!DOCTYPE svg PUBLIC "-//W3C//DTD SVG 20010904//EN"
 "http://www.w3.org/TR/2001/REC-SVG-20010904/DTD/svg10.dtd">
<svg version="1.0" xmlns="http://www.w3.org/2000/svg"
 width="512.000000pt" height="512.000000pt" viewBox="0 0 512.000000 512.000000"
 preserveAspectRatio="xMidYMid meet">
<metadata>
Created by potrace 1.16, written by Peter Selinger 2001-2019
</metadata>
<g transform="translate(0.000000,512.000000) scale(0.100000,-0.100000)"
fill="#000000" stroke="none">
<path d="M2133 5050 c-69 -35 -116 -82 -147 -149 -20 -43 -21 -66 -24 -336 -3
-288 -3 -290 21 -334 28 -55 90 -91 154 -91 l43 0 -2 -200 -3 -201 -67 -23
c-189 -66 -318 -205 -375 -401 -15 -53 -17 -131 -21 -706 l-3 -647 -67 24
c-243 84 -538 -11 -682 -221 -37 -54 -459 -783 -499 -864 -44 -86 -61 -161
-61 -266 0 -281 175 -509 445 -581 41 -11 388 -14 1908 -14 2047 0 1891 -5
1939 62 l23 33 3 1553 c2 1711 6 1616 -59 1748 -63 127 -179 225 -332 279
l-77 28 0 198 0 199 38 0 c64 0 108 18 145 59 47 52 49 72 45 386 -3 256 -3
261 -29 316 -31 65 -82 119 -142 151 l-42 23 -1036 3 -1035 2 -61 -30z m2061
-120 c54 -12 87 -38 114 -90 21 -42 22 -55 22 -286 0 -191 -3 -244 -14 -253
-10 -8 -307 -10 -1107 -9 l-1094 3 0 267 c0 254 1 268 21 294 28 39 66 65 105
74 48 11 1905 12 1953 0z m-94 -1055 l0 -265 23 -4 c12 -2 51 -9 87 -16 144
-26 262 -115 320 -242 28 -61 34 -86 38 -170 l5 -98 -1358 0 -1358 0 7 80 c12
151 61 256 154 333 57 48 141 86 216 99 33 5 70 11 81 13 19 4 20 11 17 270
l-3 265 885 0 886 0 0 -265z m470 -1980 l0 -1045 -1004 0 -1004 0 -27 54 c-88
175 -267 300 -462 323 -49 5 -54 8 -49 27 19 68 26 171 17 240 -18 127 -83
267 -156 336 l-25 23 0 544 0 543 1355 0 1355 0 0 -1045z m-3021 -40 c85 -20
156 -62 218 -128 63 -66 100 -138 119 -230 27 -130 6 -201 -134 -444 -98 -172
-106 -182 -126 -171 -11 6 -178 102 -371 213 -192 111 -358 206 -367 211 -14
8 -4 30 78 172 124 214 145 245 207 291 68 51 104 68 174 85 77 19 125 19 202
1z m-363 -896 c211 -122 382 -224 380 -228 -46 -84 -206 -355 -225 -380 -14
-19 -52 -54 -84 -77 -206 -152 -498 -98 -637 118 -74 114 -92 289 -41 403 26
59 211 385 219 385 2 0 177 -100 388 -221z m929 105 c165 -42 294 -185 326
-358 45 -242 -138 -483 -391 -516 -41 -5 -207 -10 -368 -10 l-294 0 54 59 c36
41 124 183 278 450 l225 391 55 0 c31 0 83 -7 115 -16z m2453 -621 l-3 -258
-1083 -3 -1084 -2 52 57 c93 105 149 255 150 401 l0 62 985 0 985 0 -2 -257z"/>
<path d="M2236 4814 c-39 -39 -28 -106 21 -125 16 -6 121 -9 274 -7 226 3 249
5 268 22 27 25 28 79 1 106 -19 19 -33 20 -284 20 -227 0 -267 -2 -280 -16z"/>
<path d="M2533 2540 c-103 -15 -182 -41 -203 -67 -57 -73 -75 -381 -32 -541
97 -359 387 -625 746 -682 174 -29 490 18 655 96 257 121 428 357 462 638 21
165 -17 367 -73 394 -85 40 -303 54 -429 28 -89 -19 -190 -60 -267 -109 l-62
-39 -58 53 c-108 99 -250 174 -394 209 -96 23 -256 33 -345 20z m307 -165 c88
-21 215 -84 292 -145 124 -98 219 -238 268 -395 24 -76 40 -280 24 -308 -8
-13 -44 17 -201 168 -160 154 -197 185 -222 185 -54 0 -84 -43 -68 -100 3 -14
85 -100 187 -198 99 -96 180 -178 180 -183 0 -18 -203 -10 -286 11 -395 101
-651 486 -583 875 6 33 14 67 19 75 24 38 255 47 390 15z m1109 -116 c50 -10
50 -11 58 -57 25 -148 -2 -311 -74 -442 -51 -91 -178 -216 -269 -263 -40 -20
-76 -37 -80 -37 -5 0 -9 71 -9 157 -1 121 -5 173 -19 223 -24 87 -63 184 -99
244 l-29 50 24 20 c34 28 154 83 218 100 66 18 209 20 279 5z"/>
<path d="M2206 689 c-18 -14 -26 -30 -26 -52 -1 -49 -34 -111 -76 -143 -36
-28 -42 -29 -180 -34 -164 -6 -184 -15 -184 -80 0 -64 16 -70 183 -70 168 0
216 12 292 75 55 44 104 140 112 217 5 51 3 59 -20 82 -31 31 -65 33 -101 5z"/>
</g>
</svg>
