<?xml version="1.0" encoding="UTF-8"?>
<svg version="1.1" xmlns="http://www.w3.org/2000/svg" width="512" height="512">
<path d="M0 0 C16.06606567 14.66343186 27.22493509 33.86315557 32.97265625 54.7578125 C33.29105469 55.81871094 33.60945313 56.87960938 33.9375 57.97265625 C41.39984868 87.44377525 35.32028477 119.0495898 19.97265625 144.8203125 C3.47824402 170.13731732 -18.35588195 184.85693361 -46.02734375 195.7578125 C-44.54234375 197.0571875 -44.54234375 197.0571875 -43.02734375 198.3828125 C-35.81608932 205.59406693 -30.43074795 215.87484869 -28.02734375 225.7578125 C-27.68703125 227.15 -27.68703125 227.15 -27.33984375 228.5703125 C-25.65032405 245.80341345 -29.57094349 260.774868 -40.27734375 274.5078125 C-44.65698142 279.6484775 -49.58102944 283.78962107 -55.02734375 287.7578125 C-53.4331738 292.60466106 -51.70483706 297.3890192 -49.9296875 302.171875 C-45.18333353 315.77398031 -47.53230036 331.01646499 -53.4296875 343.796875 C-60.59986847 357.36587273 -71.46144723 366.12702011 -85.02734375 372.7578125 C-85.90261719 373.18835938 -86.77789062 373.61890625 -87.6796875 374.0625 C-94.22066286 376.96724432 -100.95792854 377.9156878 -108.02734375 378.7578125 C-107.9809375 380.05074219 -107.93453125 381.34367187 -107.88671875 382.67578125 C-107.4117053 401.49139023 -111.44829615 415.41527098 -124.5546875 429.375 C-139.13359127 443.42418057 -158.24017168 450.18963843 -178.30078125 449.91015625 C-198.87722242 448.76046971 -216.96911538 440.84626219 -231.02734375 425.7578125 C-232.37324966 423.76625154 -233.70935684 421.76795883 -235.02734375 419.7578125 C-235.68734375 419.4278125 -236.34734375 419.0978125 -237.02734375 418.7578125 C-237.25808594 419.47324219 -237.48882812 420.18867188 -237.7265625 420.92578125 C-243.30305496 433.06679337 -258.21934041 441.12454041 -270.02734375 445.6328125 C-289.59142171 452.08179269 -310.12412953 451.09775752 -328.87109375 442.4453125 C-345.57106912 433.81386455 -356.51410566 421.17889876 -362.8359375 403.49609375 C-364.63233855 396.99188305 -366.0881006 384.87932621 -363.02734375 378.7578125 C-364.20876953 378.62826172 -364.20876953 378.62826172 -365.4140625 378.49609375 C-384.56363113 376.02591271 -400.38939661 367.34612281 -412.77734375 352.5078125 C-422.23541383 339.71817636 -425.05970441 326.35613685 -424.02734375 310.7578125 C-422.75604865 302.50432635 -419.73305954 295.19853827 -416.02734375 287.7578125 C-416.54683594 287.38269531 -417.06632812 287.00757813 -417.6015625 286.62109375 C-421.74357633 283.58157529 -425.51971752 280.53525613 -429.02734375 276.7578125 C-429.84332031 275.94957031 -429.84332031 275.94957031 -430.67578125 275.125 C-441.98936399 263.31737435 -444.6374566 248.71011401 -444.33984375 233.01171875 C-443.68131162 217.64871291 -435.94046548 205.17712782 -425.02734375 194.7578125 C-421.17752374 191.5537995 -417.12864928 188.63080825 -413.02734375 185.7578125 C-413.49785156 184.99597656 -413.96835937 184.23414063 -414.453125 183.44921875 C-423.11633306 169.08228365 -426.58962934 154.35574971 -422.96484375 137.6328125 C-418.42752673 121.93158523 -407.55386966 107.94569528 -393.33056641 99.78417969 C-384.34618013 94.97413699 -374.366571 90.7578125 -364.02734375 90.7578125 C-364.0015625 90.09136719 -363.97578125 89.42492187 -363.94921875 88.73828125 C-362.98081333 73.00169318 -355.60665731 59.37359193 -344.02734375 48.7578125 C-328.70040993 36.80687615 -309.58981918 29.97050248 -290.02734375 31.7578125 C-270.00462491 34.38541243 -252.15948936 41.72194545 -239.02734375 57.7578125 C-237.75390625 60.55859375 -237.75390625 60.55859375 -237.02734375 62.7578125 C-234.12026181 59.93882395 -231.46759462 57.07924549 -228.90234375 53.9453125 C-218.76172217 42.34042014 -204.08183246 35.33375587 -189.02734375 32.7578125 C-187.42311208 32.77282871 -185.81891608 32.79317084 -184.21484375 32.8203125 C-182.01137718 32.74599148 -182.01137718 32.74599148 -180.02734375 31.7578125 C-177.89539719 28.98810415 -176.36480242 26.12597934 -174.765625 23.01953125 C-172.12834066 18.07091907 -168.66193298 14.00044391 -165.02734375 9.7578125 C-164.3621875 8.94699219 -163.69703125 8.13617188 -163.01171875 7.30078125 C-144.937309 -13.95338577 -117.44549135 -27.41636103 -89.71484375 -29.8671875 C-56.00879425 -32.46359187 -25.24901107 -22.35918133 0 0 Z M-154.02734375 22.7578125 C-170.4587525 42.4820234 -177.7322627 68.93371889 -175.55859375 94.24609375 C-172.71828772 120.84533066 -159.75895571 143.39864665 -139.52734375 160.8203125 C-117.10706563 178.19602804 -90.31492888 184.74312042 -62.34716797 181.44140625 C-53.15648681 179.89175999 -44.40679331 176.81085122 -36.02734375 172.7578125 C-35.12886719 172.32855469 -34.23039063 171.89929688 -33.3046875 171.45703125 C-9.88839063 159.49618896 7.22913748 138.6966725 15.3203125 113.77734375 C22.85015583 88.16508095 20.41399403 61.30793869 7.97265625 37.7578125 C3.24141512 29.56021307 -2.50970109 22.58638857 -9.02734375 15.7578125 C-9.55457031 15.15582031 -10.08179688 14.55382812 -10.625 13.93359375 C-24.9616839 -1.79642516 -48.87726991 -11.57645163 -69.86328125 -13.1484375 C-70.93449219 -13.19484375 -70.93449219 -13.19484375 -72.02734375 -13.2421875 C-72.86523438 -13.29375 -73.703125 -13.3453125 -74.56640625 -13.3984375 C-106.05559934 -14.43940256 -133.13278114 -0.10367653 -154.02734375 22.7578125 Z M-339.09765625 69.20703125 C-345.91166611 78.28762598 -347.46546849 86.83393749 -347.38623047 97.95727539 C-347.42578125 100.09765625 -347.42578125 100.09765625 -348.02734375 103.7578125 C-351.7157602 107.28371252 -356.15600458 107.28415708 -361.02734375 107.6328125 C-376.04967383 109.10052995 -388.57191272 115.00588064 -398.46484375 126.6328125 C-405.33379504 135.75387897 -407.83753456 145.49015887 -407.02734375 156.7578125 C-405.21791628 166.92434143 -399.99254177 175.45202359 -392.4453125 182.3828125 C-390.35858446 184.40630635 -390.0395557 185.6662229 -389.65234375 188.5703125 C-390.16027563 192.8877335 -391.77370813 193.94208208 -395.02734375 196.7578125 C-398.296875 198.53125 -398.296875 198.53125 -401.83984375 200.1328125 C-411.5090643 204.73828239 -417.78892342 210.39684837 -423.02734375 219.7578125 C-423.44242187 220.49515625 -423.8575 221.2325 -424.28515625 221.9921875 C-428.61999343 231.02562442 -428.52877612 242.25150363 -425.46484375 251.6953125 C-420.31346991 263.75133478 -410.78460132 271.68204786 -399.34765625 277.49609375 C-396.53872767 279.02350777 -395.27390982 279.99756713 -394.27734375 283.0703125 C-393.82137222 287.97200647 -395.99259831 290.7877582 -398.90234375 294.5078125 C-405.77822871 303.40107202 -407.82082394 312.66406116 -407.02734375 323.7578125 C-405.21247521 334.63037358 -398.94475635 344.01225248 -390.5390625 350.9765625 C-378.47039235 359.53537057 -366.07706314 362.01139812 -351.65234375 362.546875 C-348.02734375 362.7578125 -348.02734375 362.7578125 -345.02734375 363.7578125 C-344.10963112 368.93037458 -343.7329797 372.57704092 -345.46484375 377.5703125 C-348.81110136 387.5935934 -347.47110229 397.27867077 -343.02734375 406.7578125 C-335.83236963 418.55682446 -324.70811114 426.91683425 -311.5 430.79296875 C-294.04556619 434.86756513 -278.3711278 432.10646725 -263.02734375 422.7578125 C-252.97625704 415.53221429 -247.14447647 406.37384055 -244.50176525 394.37063217 C-243.81610521 389.14918651 -243.88650319 383.97527018 -243.89363098 378.7144165 C-243.89023265 376.87971161 -243.89023265 376.87971161 -243.88676566 375.00794196 C-243.88153492 371.62031446 -243.88078002 368.23274008 -243.88196003 364.84511232 C-243.88216431 361.18854677 -243.87664271 357.53198911 -243.87190247 353.87542725 C-243.86360091 346.71401096 -243.86084784 339.55260291 -243.86029009 332.39118221 C-243.85981466 326.56856436 -243.85775855 320.74594921 -243.85458946 314.92333221 C-243.84578394 298.40817784 -243.84116988 281.89302995 -243.84191994 265.37787321 C-243.84195989 264.48779419 -243.84199985 263.59771517 -243.84204102 262.68066406 C-243.84210234 261.34391159 -243.84210234 261.34391159 -243.8421649 259.98015401 C-243.84257125 245.5410598 -243.83300409 231.10199167 -243.81890265 216.66290501 C-243.80453126 201.83012214 -243.7976329 186.99735199 -243.79849643 172.16456199 C-243.79882815 163.8398629 -243.79609186 155.51519116 -243.78531837 147.19049835 C-243.7762033 140.10192334 -243.77404636 133.01338807 -243.7808278 125.92480972 C-243.78408803 122.31042576 -243.78416772 118.696118 -243.77547455 115.08174133 C-243.76613349 111.15750683 -243.77239864 107.23338302 -243.78010559 103.30914307 C-243.77239025 101.60804803 -243.77239025 101.60804803 -243.76451904 99.87258744 C-243.82574942 85.74292055 -246.8702191 74.34979098 -256.73046875 63.859375 C-268.02528388 53.52500334 -283.03488288 48.1003294 -298.3046875 48.51171875 C-314.98633442 50.01952902 -328.25679014 56.3820821 -339.09765625 69.20703125 Z M-213.02734375 62.7578125 C-213.91421875 63.5415625 -214.80109375 64.3253125 -215.71484375 65.1328125 C-224.85215876 75.5048998 -227.48511403 84.86126742 -227.4150238 98.53488159 C-227.42040934 99.80071142 -227.42579488 101.06654125 -227.43134362 102.37072957 C-227.44573963 105.86372133 -227.44157197 109.35647597 -227.4341768 112.84948039 C-227.42943285 116.62464125 -227.44196582 120.39975171 -227.45219421 124.17489624 C-227.46936376 131.56285672 -227.47022604 138.95073207 -227.46498131 146.33870731 C-227.46093481 152.34574899 -227.46238886 158.35276557 -227.46772957 164.35980606 C-227.46847799 165.21577268 -227.46922641 166.07173931 -227.46999751 166.95364431 C-227.47152904 168.69271747 -227.47306739 170.43179062 -227.47461248 172.17086376 C-227.48833094 188.46859474 -227.48290451 204.76627767 -227.47142727 221.06400754 C-227.46149634 235.96139542 -227.4744343 250.85865908 -227.49836146 265.7560278 C-227.52276678 281.06691678 -227.53235676 296.37774794 -227.52570873 311.68865597 C-227.5222196 320.27885178 -227.52442832 328.86895208 -227.54195976 337.45913315 C-227.5566997 344.77199453 -227.55729387 352.08469315 -227.53988885 359.3975514 C-227.53139102 363.12556917 -227.52919915 366.8532964 -227.54454041 370.58129883 C-227.56099464 374.63002548 -227.54620729 378.67805458 -227.52854919 382.72677612 C-227.5381542 383.89478976 -227.54775921 385.0628034 -227.55765527 386.26621139 C-227.45182147 398.0872825 -223.76457708 407.79244689 -216.02734375 416.7578125 C-205.2820413 427.17249026 -190.87145613 432.54878185 -176.02734375 433.1328125 C-162.45173574 432.57825335 -147.59234723 428.03986758 -137.54296875 418.47265625 C-128.45582768 408.19107138 -124.20443675 398.46546926 -124.67578125 384.74609375 C-124.97916037 380.06843714 -126.14274545 375.73481248 -127.6640625 371.30859375 C-128.02734375 368.7578125 -128.02734375 368.7578125 -126.734375 365.98828125 C-125.02734375 363.7578125 -125.02734375 363.7578125 -123.02734375 362.7578125 C-121.31031104 362.6635851 -119.59274347 362.57455496 -117.87402344 362.51904297 C-101.74788234 361.95196162 -86.19605852 357.29141777 -74.84765625 345.20703125 C-66.92893018 334.5524363 -64.0583823 323.93007101 -65.02734375 310.7578125 C-66.38960247 304.14608546 -69.19412377 299.32903003 -73.27734375 294.0078125 C-77.5962387 288.35940697 -77.5962387 288.35940697 -77.77734375 284.8203125 C-76.88193108 281.16404412 -75.83772328 280.20203429 -73.02734375 277.7578125 C-71.15950309 276.64683926 -69.26055103 275.58715753 -67.33984375 274.5703125 C-56.00199069 268.03242643 -49.76490317 259.78500947 -45.02734375 247.7578125 C-42.80310958 237.09189427 -44.29235222 227.56589833 -49.5703125 217.9453125 C-53.31963321 212.3170416 -57.61829137 207.79917673 -63.02734375 203.7578125 C-63.62289062 203.26152344 -64.2184375 202.76523438 -64.83203125 202.25390625 C-70.84106815 198.01862121 -77.16716939 198.26132423 -84.24487305 198.05566406 C-109.89661808 197.29212108 -135.10274452 187.15535473 -154.02734375 169.7578125 C-154.54393555 169.28891602 -155.06052734 168.82001953 -155.59277344 168.33691406 C-178.26573323 147.54776102 -190.42573547 119.34782191 -192.02734375 88.7578125 C-192.21379497 82.91333298 -191.88989141 77.24178514 -191.15234375 71.4453125 C-191.01916748 70.35488647 -191.01916748 70.35488647 -190.88330078 69.24243164 C-190.10809229 63.05098175 -189.13941386 56.8978592 -188.02734375 50.7578125 C-197.67653667 50.7578125 -206.03619463 56.54666762 -213.02734375 62.7578125 Z " fill="#000000" transform="translate(460.02734375,46.2421875)"/>
<path d="M0 0 C9.62150895 10.50939988 12.96414579 21.90100476 12.3828125 35.875 C11.52915394 47.53629809 6.13354664 56.6739258 -1.75 65 C-4.94315244 68.50757664 -5.80554474 71.28502147 -6.55859375 75.8984375 C-7.80090557 81.81316102 -12.29865449 85.61503123 -17 89 C-22.01300254 91.12830137 -26.52265739 91.33483866 -31.875 91.3125 C-32.63941406 91.32861328 -33.40382813 91.34472656 -34.19140625 91.36132812 C-40.57916707 91.36675067 -46.03233931 90.18179932 -51.2421875 86.3515625 C-54.91996607 82.46261962 -57.5417296 79.44699039 -58.26953125 73.97265625 C-59.02195253 69.13566231 -60.00357927 66.62022073 -63.6875 63.3125 C-70.88240028 56.81345687 -75.64938433 46.74779787 -76.23828125 37.09375 C-76.59605391 22.46500111 -74.20734058 11.14929315 -64 0 C-45.14814186 -16.99523575 -18.84483776 -16.98890676 0 0 Z M-51.59375 12.56640625 C-57.96760093 19.54952234 -59.56211241 25.37975834 -59.3671875 34.7578125 C-58.84088269 39.404972 -57.41672522 44.58327478 -54 48 C-52.61839885 48.0927833 -51.23211962 48.11747043 -49.84741211 48.11352539 C-48.96657455 48.11344986 -48.085737 48.11337433 -47.1782074 48.11329651 C-45.74227989 48.10555458 -45.74227989 48.10555458 -44.27734375 48.09765625 C-43.30213272 48.0962413 -42.32692169 48.09482635 -41.32215881 48.09336853 C-38.19390857 48.08775133 -35.06572877 48.07519593 -31.9375 48.0625 C-29.82226666 48.05748722 -27.70703219 48.05292393 -25.59179688 48.04882812 C-20.39450704 48.03777631 -15.19725855 48.02102146 -10 48 C-5.63889987 40.02882291 -3.62414223 34.17990347 -5 25 C-7.67337481 16.1950316 -13.36280683 11.09146211 -20.8125 6.125 C-32.05624642 2.15661891 -42.97591343 4.09642472 -51.59375 12.56640625 Z M-42 65 C-41.67 67.31 -41.34 69.62 -41 72 C-37.53767506 74.30821663 -36.08201684 74.27000989 -32 74.25 C-30.948125 74.25515625 -29.89625 74.2603125 -28.8125 74.265625 C-25.79349621 74.20467017 -25.79349621 74.20467017 -23 72 C-22.67 69.69 -22.34 67.38 -22 65 C-28.6 65 -35.2 65 -42 65 Z " fill="#000000" transform="translate(414,102)"/>
<path d="M0 0 C4.63127335 2.8816812 4.63127335 2.8816812 5.6286791 5.90673405 C6.2441568 9.37639735 6.140528 12.86926519 6.13371277 16.38182068 C6.13597833 17.23517299 6.13824388 18.08852531 6.14057809 18.96773678 C6.14691666 21.83193913 6.14608882 24.69609414 6.14526367 27.56030273 C6.14825522 29.61186789 6.15165774 31.66343249 6.15544128 33.71499634 C6.1642852 39.29136664 6.16661954 44.8677216 6.16725707 50.44409823 C6.1682059 55.09636379 6.17188383 59.74862576 6.17542917 64.40088993 C6.18357497 75.37443953 6.18601326 86.34798093 6.18530273 97.3215332 C6.18470168 108.64933553 6.1952588 119.97709028 6.2110464 131.30488056 C6.22411129 141.0247064 6.22948708 150.74451668 6.22884732 160.46435124 C6.22859206 166.27213879 6.23145915 172.07988406 6.24202538 177.88766289 C6.25168884 183.34837973 6.25179757 188.80901371 6.24450874 194.26973343 C6.24346077 196.27527169 6.24583836 198.28081506 6.2518692 200.28634453 C6.25956192 203.0213931 6.25496238 205.75615352 6.24723816 208.49119568 C6.25238172 209.28711119 6.25752529 210.08302669 6.26282471 210.90306085 C6.23078183 216.02790709 5.89920399 220.0329673 2.25 223.8125 C-0.77894929 225.41111212 -2.61402051 225.48371136 -6 225 C-8.65172386 223.51592255 -8.65172386 223.51592255 -11 221 C-11.50084643 217.91949804 -11.67632995 215.38924555 -11.63491821 212.30773926 C-11.64271817 211.42101296 -11.65051812 210.53428666 -11.65855443 209.62068987 C-11.67853154 206.64319093 -11.66268748 203.66696202 -11.64697266 200.68945312 C-11.65374622 198.55744173 -11.66264788 196.42543619 -11.67352295 194.29344177 C-11.69635364 188.49799495 -11.68746417 182.70299223 -11.67162752 176.90753746 C-11.65898816 170.84886839 -11.67070317 164.79023791 -11.67855835 158.73156738 C-11.68766062 148.55616411 -11.67565174 138.38094216 -11.65185547 128.20556641 C-11.62464326 116.43341113 -11.633457 104.66168879 -11.6609875 92.88954401 C-11.683661 82.79093288 -11.68688721 72.69245226 -11.67379415 62.59382391 C-11.66599002 56.55853521 -11.66498461 50.52345014 -11.68147659 44.48817444 C-11.69589636 38.81469979 -11.68594477 33.14178451 -11.65700531 27.46837044 C-11.65038122 25.38340752 -11.65231462 23.2983977 -11.66331863 21.21345329 C-11.67693327 18.37241544 -11.65990795 15.53318277 -11.63491821 12.69226074 C-11.64607182 11.86230481 -11.65722543 11.03234887 -11.66871703 10.17724276 C-11.6012652 6.23840765 -11.38646782 4.41272882 -8.64781761 1.4879837 C-5.38620308 -0.34493305 -3.68812835 -0.61468806 0 0 Z " fill="#000000" transform="translate(188,212)"/>
<path d="M0 0 C4.63017032 2.88099486 4.63017032 2.88099486 5.6262207 5.89477539 C6.24656553 9.38872275 6.18447956 12.90056789 6.1875 16.4375 C6.19974609 17.18837891 6.21199219 17.93925781 6.22460938 18.71289062 C6.23808019 23.81832859 5.96630305 27.96347184 2.25 31.8125 C-0.77894929 33.41111212 -2.61402051 33.48371136 -6 33 C-8.65234375 31.75390625 -8.65234375 31.75390625 -11 29 C-11.76981144 24.82833285 -11.69670362 20.73051368 -11.625 16.5 C-11.64433594 15.35917969 -11.66367188 14.21835938 -11.68359375 13.04296875 C-11.63482417 4.74238574 -11.63482417 4.74238574 -8.6484375 1.25 C-5.39266721 -0.28664674 -3.55953549 -0.59325592 0 0 Z " fill="#000000" transform="translate(188,166)"/>
<path d="M0 0 C3.57632467 2.51103647 4.78325846 4.04272488 5.75 8.3125 C4.66932351 13.62582605 1.82154181 16.30559363 -2 20 C-2.58652344 20.59554687 -3.17304688 21.19109375 -3.77734375 21.8046875 C-6.69850698 24.57349982 -8.71904748 25.91280784 -12.625 27.125 C-16 27 -16 27 -18.875 25.5 C-21.66441154 22.21833937 -22.07402072 20.29320173 -22 16 C-17.8864694 7.39898147 -9.86836937 -1.00356299 0 0 Z " fill="#000000" transform="translate(343,166)"/>
<path d="M0 0 C7.64666515 1.75497233 13.28140054 8.72277384 17.8125 14.875 C18.953581 18.52645921 19.15524329 20.12096476 17.5625 23.625 C15.8125 25.875 15.8125 25.875 12.8125 27.875 C7.96670823 27.86999918 5.06355586 27.52040154 1.44140625 24.22265625 C0.40071705 23.1452214 -0.62141643 22.04957909 -1.625 20.9375 C-2.15287109 20.38642578 -2.68074219 19.83535156 -3.22460938 19.26757812 C-6.36933204 15.94523313 -8.04401818 14.14242277 -8.5625 9.5625 C-8.1875 5.875 -8.1875 5.875 -6.125 2.9375 C-3.1875 0.875 -3.1875 0.875 0 0 Z " fill="#000000" transform="translate(424.1875,165.125)"/>
<path d="M0 0 C2.93469005 2.07361333 5.4576861 4.46777465 8 7 C8.91265625 7.87785156 8.91265625 7.87785156 9.84375 8.7734375 C12.71692083 11.76858257 13.89778179 13.46103126 14.6875 17.625 C13.80282447 21.96795258 12.61697193 23.46042396 9 26 C5.6875 26.75 5.6875 26.75 2 26 C-0.98899943 23.97257791 -3.44990005 21.54493781 -6 19 C-6.59554688 18.49855469 -7.19109375 17.99710938 -7.8046875 17.48046875 C-10.7599992 14.91401385 -12.4054358 12.74192853 -13.125 8.9375 C-13 5 -13 5 -11.25 2.0625 C-7.48321859 -1.39038296 -4.7534187 -1.43499433 0 0 Z " fill="#000000" transform="translate(334,72)"/>
<path d="M0 0 C2.85695513 1.71417308 3.01592889 3.05628208 3.9375 6.3125 C4.03445081 12.03259783 1.5163694 14.38952966 -2.203125 18.33984375 C-9.54458329 25.83523584 -9.54458329 25.83523584 -14.3125 26.375 C-18 26 -18 26 -20.9375 23.9375 C-23 21 -23 21 -23.75 17.6875 C-22.19168514 10.02578525 -15.02631933 4.59526725 -9 0 C-5.85000502 -1.57499749 -3.36459118 -0.70833498 0 0 Z " fill="#000000" transform="translate(439,72)"/>
<path d="M0 0 C0.99773437 -0.01546875 1.99546875 -0.0309375 3.0234375 -0.046875 C10.29082587 -0.00790777 10.29082587 -0.00790777 13.62890625 2.3828125 C15.28327103 4.93741566 15.92714809 6.4402199 16 9.5 C14.81505764 12.85733669 14.06471334 14.91960378 10.87890625 16.65625 C7.25058008 17.71964003 3.80937815 17.82989498 0.0625 17.8125 C-0.97293945 17.83666992 -0.97293945 17.83666992 -2.02929688 17.86132812 C-6.75794018 17.86581025 -9.99810094 17.01111529 -14 14.5 C-15.56471233 11.37057535 -15.69701958 7.88917777 -15 4.5 C-11.6392507 -1.11767479 -5.81800447 -0.09020162 0 0 Z " fill="#000000" transform="translate(315,123.5)"/>
<path d="M0 0 C0.99773437 -0.01546875 1.99546875 -0.0309375 3.0234375 -0.046875 C10.24220491 -0.00816847 10.24220491 -0.00816847 13.65625 2.28125 C15.75399842 5.74497413 15.80549445 8.57724205 15 12.5 C12.66870382 15.74716254 10.84403166 16.80755659 7 17.5 C4.54448015 17.64411629 2.08456898 17.72054408 -0.375 17.75 C-1.66148437 17.77578125 -2.94796875 17.8015625 -4.2734375 17.828125 C-8.24520439 17.47840968 -10.61977965 16.56653232 -14 14.5 C-16.00227445 11.97539309 -16.00998065 10.73953569 -15.875 7.5 C-13.44840182 -0.81976519 -7.48611116 -0.11606374 0 0 Z " fill="#000000" transform="translate(449,123.5)"/>
<path d="M0 0 C2.2265625 1.33203125 2.2265625 1.33203125 4 4 C4.59759732 7.67464522 4.55759909 11.28485847 4.5 15 C4.51546875 15.99773437 4.5309375 16.99546875 4.546875 18.0234375 C4.50790777 25.29082587 4.50790777 25.29082587 2.1171875 28.62890625 C-0.43741566 30.28327103 -1.9402199 30.92714809 -5 31 C-8.35733669 29.81505764 -10.41960378 29.06471334 -12.15625 25.87890625 C-13.21964003 22.25058008 -13.32989498 18.80937815 -13.3125 15.0625 C-13.32861328 14.37220703 -13.34472656 13.68191406 -13.36132812 12.97070312 C-13.36581025 8.24205982 -12.51111529 5.00189906 -10 1 C-6.87057535 -0.56471233 -3.38917777 -0.69701958 0 0 Z " fill="#000000" transform="translate(386,50)"/>
</svg>
