<?xml version="1.0" standalone="no"?>
<!DOCTYPE svg PUBLIC "-//W3C//DTD SVG 20010904//EN"
 "http://www.w3.org/TR/2001/REC-SVG-20010904/DTD/svg10.dtd">
<svg version="1.0" xmlns="http://www.w3.org/2000/svg"
 width="512.000000pt" height="512.000000pt" viewBox="0 0 512.000000 512.000000"
 preserveAspectRatio="xMidYMid meet">
<metadata>
Created by potrace 1.16, written by Peter Selinger 2001-2019
</metadata>
<g transform="translate(0.000000,512.000000) scale(0.100000,-0.100000)"
fill="#000000" stroke="none">
<path d="M1415 4650 c-234 -25 -456 -108 -645 -241 -103 -72 -264 -237 -332
-339 -160 -243 -228 -470 -228 -764 0 -210 35 -371 125 -578 7 -17 -3 -18
-116 -18 -136 0 -162 -9 -200 -66 -26 -39 -26 -129 0 -168 42 -63 53 -66 301
-66 l225 0 965 -964 c1062 -1061 995 -1001 1093 -976 38 10 142 111 1007 976
l965 964 225 0 c204 0 228 2 254 19 46 31 66 69 66 131 0 62 -20 100 -66 131
-25 16 -48 19 -153 19 -113 0 -123 1 -116 18 90 207 125 368 125 578 0 177
-16 285 -65 431 -68 204 -168 367 -320 519 -120 121 -213 188 -360 260 -196
97 -368 137 -595 137 -227 0 -399 -40 -595 -137 -133 -65 -224 -128 -333 -231
l-82 -77 -82 77 c-193 182 -416 297 -668 345 -117 23 -289 31 -395 20z m245
-310 c268 -33 443 -125 686 -361 151 -147 172 -159 251 -144 30 5 63 32 172
139 75 72 166 153 202 179 522 370 1243 187 1524 -388 85 -172 100 -244 99
-460 0 -167 -2 -187 -27 -270 -32 -104 -82 -215 -127 -280 l-31 -45 -386 2
-386 3 -176 278 c-112 177 -187 285 -206 297 -41 27 -126 27 -169 0 -25 -15
-86 -114 -281 -454 -138 -240 -253 -436 -256 -436 -4 0 -66 118 -139 263 -439
870 -511 1006 -545 1027 -44 27 -126 27 -171 -1 -41 -25 -42 -27 -265 -561
l-174 -418 -272 0 -272 0 -31 45 c-45 65 -95 176 -127 280 -25 83 -27 103 -27
270 -1 216 14 288 99 460 130 265 361 460 641 540 147 41 258 51 394 35z m251
-1382 c61 -123 201 -400 311 -615 223 -438 219 -433 318 -433 95 0 90 -7 375
489 142 248 261 448 265 446 4 -3 64 -94 133 -202 84 -133 135 -204 155 -215
27 -16 63 -18 349 -18 l318 0 -788 -787 -787 -788 -787 788 -788 787 215 0
c192 0 218 2 243 19 15 10 34 27 42 38 7 10 73 161 146 334 72 172 138 329
146 347 7 17 15 32 18 32 3 0 55 -100 116 -222z"/>
</g>
</svg>
